<svg width="50" height="50" viewBox="0 0 50 50" fill="none" xmlns="http://www.w3.org/2000/svg">
  <circle cx="25" cy="25" r="20" fill="#ffccff"/>
  <circle cx="18" cy="20" r="3" fill="#ff66b2"/>
  <circle cx="32" cy="20" r="3" fill="#ff66b2"/>
  <path d="M20 30C20 30 22 33 25 33C28 33 30 30 30 30" stroke="#ff66b2" stroke-width="2" stroke-linecap="round"/>
  <path d="M10 15C10 10 5 5 5 5C5 5 5 15 8 20" stroke="#ff66b2" stroke-width="2" stroke-linecap="round"/>
  <path d="M40 15C40 10 45 5 45 5C45 5 45 15 42 20" stroke="#ff66b2" stroke-width="2" stroke-linecap="round"/>
  <path d="M20 25L15 23" stroke="#ff66b2" stroke-width="2" stroke-linecap="round"/>
  <path d="M30 25L35 23" stroke="#ff66b2" stroke-width="2" stroke-linecap="round"/>
</svg> 