<svg width="50" height="50" viewBox="0 0 50 50" fill="none" xmlns="http://www.w3.org/2000/svg">
  <path d="M5 35C5 21.2 16.2 10 30 10V15C18.95 15 10 23.95 10 35H5Z" fill="#FF0000"/>
  <path d="M15 35C15 26.7 21.7 20 30 20V25C24.5 25 20 29.5 20 35H15Z" fill="#FF7F00"/>
  <path d="M25 35C25 32.25 27.25 30 30 30V35H25Z" fill="#FFFF00"/>
  <path d="M10 35C10 24.5 18.5 16 30 16V21C21.2 21 14.5 27.7 14.5 36.5H10V35Z" fill="#00FF00"/>
  <path d="M20 35C20 30 24.5 25.5 30 25.5V30.5C27.25 30.5 25 32.75 25 35.5H20V35Z" fill="#0000FF"/>
</svg> 